
<svg id="OKD_O_Icon" data-name="OKD O Icon" viewBox="0 0 80 80" xmlns="http://www.w3.org/2000/svg">
  <path id="letter-o" fill="#f22b29" d="m 39.85,0.65 c 10.8,0 20.1,3.8 27.7,11.3 7.7,7.5 11.5,16.7 11.5,27.5 0,10.8 -3.9,20.2 -11.6,28.1 -7.7,7.9 -17,11.8 -27.7,11.8 -10.7,0 -19.6,-3.9 -27.3,-11.8 -7.7,-7.8 -11.5,-17.1 -11.5,-27.8 0,-10.7 3.8,-20 11.3,-27.7 7.6,-7.6 16.8,-11.4 27.6,-11.4 z m -25,39.4 c 0,7 2.5,13.1 7.5,18.3 5,5.2 10.9,7.9 17.6,7.9 6.7,0 12.8,-2.6 17.8,-7.7 5,-5.1 7.5,-11.4 7.5,-18.6 0,-7.2 -2.5,-13.4 -7.5,-18.7 -5,-5.3 -10.9,-8 -17.8,-8 -6.5,0 -12.4,2.6 -17.5,8 -5,5.3 -7.6,11.5 -7.6,18.8 z" />
</svg>
