<?xml version="1.0" encoding="UTF-8" standalone="no"?>
<svg
   width="273.082"
   height="399.06506"
   id="svg5902"
   version="1.1"
   xmlns="http://www.w3.org/2000/svg"
   xmlns:svg="http://www.w3.org/2000/svg"
   xmlns:rdf="http://www.w3.org/1999/02/22-rdf-syntax-ns#"
   xmlns:cc="http://creativecommons.org/ns#"
   xmlns:dc="http://purl.org/dc/elements/1.1/">
  <defs
     id="defs5904">
    <filter
       style="color-interpolation-filters:sRGB"
       height="1"
       width="1"
       y="0"
       x="0"
       id="filter3352-4-9-76-3-9-6-7">
      <feColorMatrix
         values="0"
         type="saturate"
         id="feColorMatrix3354-1-6-9-4-9-0-3" />
    </filter>
    <filter
       style="color-interpolation-filters:sRGB"
       height="1"
       width="1"
       y="0"
       x="0"
       id="filter3352-4-3-31-1-3-9">
      <feColorMatrix
         values="0"
         type="saturate"
         id="feColorMatrix3354-1-66-51-0-0-3" />
    </filter>
    <filter
       style="color-interpolation-filters:sRGB"
       height="1"
       width="1"
       y="0"
       x="0"
       id="filter3352-4-3-2-3-6-8-2">
      <feColorMatrix
         values="0"
         type="saturate"
         id="feColorMatrix3354-1-66-5-3-4-6-5" />
    </filter>
    <filter
       style="color-interpolation-filters:sRGB"
       height="1"
       width="1"
       y="0"
       x="0"
       id="filter3352-4-3-3-6-5-3-4">
      <feColorMatrix
         values="0"
         type="saturate"
         id="feColorMatrix3354-1-66-9-2-4-1-3" />
    </filter>
  </defs>
  <g
     transform="translate(-1.578583,-5.406073)"
     id="layer1">
    <g
       id="g4001">
      <path
         style="color:#000000;display:inline;overflow:visible;visibility:visible;opacity:0.75;fill:#e9afaf;fill-opacity:1;fill-rule:nonzero;stroke:none;stroke-width:0.461489;stroke-miterlimit:4;stroke-dasharray:none;marker:none;enable-background:new"
         d="m 238.7115,275.9613 c 7.58167,14.10502 35.94909,128.50984 35.94909,128.50984 0,0 -82.53782,-88.39371 -90.12003,-102.49869 -7.58182,-14.10515 -1.60176,-31.36223 13.35719,-38.54509 14.9584,-7.18272 33.23165,-1.5712 40.81375,12.53394 z"
         id="path10535" />
      <path
         id="path10537"
         d="m 224.88435,274.874 c 4.59835,8.34568 30.84217,92.6552 30.84217,92.6552 0,0 -59.62973,-69.23489 -64.22839,-77.58068 -4.59854,-8.34557 -0.85257,-18.48565 8.3669,-22.64841 9.21901,-4.16265 20.42065,-0.77178 25.01932,7.57389 z"
         style="color:#000000;display:inline;overflow:visible;visibility:visible;fill:#c83737;fill-opacity:1;fill-rule:nonzero;stroke:none;stroke-width:0.392637;marker:none;enable-background:new" />
      <path
         transform="matrix(1.1763057,0.88125238,0.89457135,-0.14800381,-180.88985,92.734867)"
         style="color:#000000;display:inline;overflow:visible;visibility:visible;fill:#241f1c;fill-opacity:1;fill-rule:nonzero;stroke:none;stroke-width:1.60987;marker:none;filter:url(#filter3352-4-9-76-3-9-6-7);enable-background:new"
         d="m 153,106.25 c 0,12.28834 -10.74517,22.25 -24,22.25 -13.25483,0 -24,-9.96166 -24,-22.25 0,-12.288336 10.74517,-36.509849 24,-36.509849 13.25483,0 24,24.221513 24,36.509849 z"
         id="path11481" />
      <path
         id="path11483"
         d="m 176.76363,248.22693 27.2247,-11.58909 c 0,0 9.1347,8.24738 18.2551,29.94102 -14.6618,20.95343 -36.553,15.55986 -36.553,15.55986 -9.2628,-21.21942 -8.9268,-33.91179 -8.9268,-33.91179 z"
         style="color:#000000;display:inline;overflow:visible;visibility:visible;fill:#d3bc5f;fill-opacity:1;fill-rule:nonzero;stroke:none;stroke-width:3;marker:none;enable-background:new" />
      <path
         id="rect11485"
         d="m 164.72192,176.14243 3.4192,-1.72455 c 14.91703,-7.52373 32.98307,-1.57171 40.5068,13.34533 l 10.09978,20.02447 c 7.52373,14.91704 1.57171,32.98308 -13.34533,40.50681 l -3.41919,1.72454 c -14.91703,7.52373 -32.98307,1.57172 -40.5068,-13.34532 L 151.3766,216.64923 c -7.52373,-14.91704 -1.57171,-32.98307 13.34532,-40.5068 z"
         style="color:#000000;display:inline;overflow:visible;visibility:visible;fill:#decd87;fill-opacity:1;fill-rule:nonzero;stroke:none;stroke-width:3;marker:none;enable-background:new" />
      <path
         id="path11487"
         d="m 92.84215,187.11829 c -10.47526,2.2872 -12.41037,15.58499 3.96016,31.89034"
         style="fill:none;fill-opacity:1;stroke:#f6a20a;stroke-width:8.56532;stroke-linecap:round;stroke-linejoin:miter;stroke-miterlimit:4;stroke-dasharray:none;stroke-opacity:1" />
      <path
         id="path11489"
         d="m 153,106.25 c 0,12.28834 -10.74517,22.25 -24,22.25 -13.25483,0 -24,-9.96166 -24,-22.25 0,-12.288336 10.74517,-36.509849 24,-36.509849 13.25483,0 24,24.221513 24,36.509849 z"
         style="color:#000000;display:inline;overflow:visible;visibility:visible;fill:#241c1c;fill-opacity:1;fill-rule:nonzero;stroke:none;stroke-width:1.60987;marker:none;filter:url(#filter3352-4-3-31-1-3-9);enable-background:new"
         transform="matrix(0.19316825,-0.93085959,-0.71669136,-0.14513103,208.82943,422.00971)" />
      <path
         id="path11493"
         d="m 153,106.25 c 0,12.28834 -10.74517,22.25 -24,22.25 -13.25483,0 -24,-9.96166 -24,-22.25 0,-12.288336 10.74517,-36.509849 24,-36.509849 13.25483,0 24,24.221513 24,36.509849 z"
         style="color:#000000;display:inline;overflow:visible;visibility:visible;fill:#241f1c;fill-opacity:1;fill-rule:nonzero;stroke:none;stroke-width:1.60987;marker:none;filter:url(#filter3352-4-3-2-3-6-8-2);enable-background:new"
         transform="matrix(-2.2877498,0.42579122,0.47950403,2.0995708,395.23703,-52.74875)" />
      <ellipse
         style="color:#000000;display:inline;overflow:visible;visibility:visible;fill:#ffffff;fill-opacity:1;fill-rule:nonzero;stroke:none;stroke-width:6.02916;marker:none;enable-background:new"
         id="path11495"
         transform="matrix(-0.97612886,0.21719221,0.22376766,0.97464252,0,0)"
         cx="-91.315041"
         cy="260.14133"
         rx="39.377613"
         ry="35.642525" />
      <path
         id="path11499"
         d="m 153,106.25 c 0,12.28834 -10.74517,22.25 -24,22.25 -13.25483,0 -24,-9.96166 -24,-22.25 0,-12.288336 10.74517,-36.509849 24,-36.509849 13.25483,0 24,24.221513 24,36.509849 z"
         style="color:#000000;display:inline;overflow:visible;visibility:visible;fill:#241f1c;fill-opacity:1;fill-rule:nonzero;stroke:none;stroke-width:1.60987;marker:none;filter:url(#filter3352-4-9-76-3-9-6-7);enable-background:new"
         transform="matrix(-1.2585764,-0.54536114,-0.29404746,-0.75998468,404.53701,337.09935)" />
      <path
         style="fill:none;stroke:#f6a20a;stroke-width:8.56532;stroke-linecap:round;stroke-linejoin:miter;stroke-miterlimit:4;stroke-dasharray:none;stroke-opacity:1"
         d="m 180.08919,163.14312 c -8.62189,9.50115 2.1131,24.61898 15.0719,28.82811"
         id="path11501" />
      <circle
         transform="rotate(-135.20997)"
         id="path11477"
         style="color:#000000;display:inline;overflow:visible;visibility:visible;opacity:0.991736;fill:#ffffff;fill-opacity:1;fill-rule:nonzero;stroke:none;stroke-width:3.03638;marker:none;enable-background:new"
         cx="-120.04732"
         cy="22.780998"
         r="40.793919" />
      <ellipse
         transform="matrix(4.5718079,-4.4532587,7.0929013,2.6240506,434.84081,-703.78626)"
         id="path11497"
         style="color:#000000;display:inline;overflow:visible;visibility:visible;fill:#221e1f;fill-opacity:1;fill-rule:nonzero;stroke:none;stroke-width:1;marker:none;filter:url(#filter3352-4-3-2-3-6-8-2);enable-background:new"
         cx="-140.5"
         cy="39.875"
         rx="3.25"
         ry="2.125" />
      <path
         id="path11503"
         d="m 153,106.25 c 1.99889,12.14657 -10.74517,22.25 -24,22.25 -13.25483,0 -26.36195,-10.16007 -24,-22.25 C 107.37908,94.072426 115.74517,84 129,84 c 13.25483,0 21.97778,9.961664 24,22.25 z"
         style="color:#000000;display:inline;overflow:visible;visibility:visible;fill:#ffffff;fill-opacity:1;fill-rule:nonzero;stroke:none;stroke-width:1.60987;marker:none;filter:url(#filter3352-4-3-2-3-6-8-2);enable-background:new"
         transform="matrix(-3.3999941,-1.1086292,-1.1867756,3.6545965,674.9853,-131.72925)" />
      <path
         id="path11505"
         d="m 62.37684,156.61378 c -0.562849,1.73152 1.060124,5.42281 4.284265,6.45167 3.186411,1.03974 6.692338,-0.95291 7.25345,-2.69001 0.561544,-1.73152 -1.564115,-3.97685 -4.749641,-5.01445 -3.187479,-1.03995 -6.225663,-0.47874 -6.78656,1.256 z"
         style="color:#000000;display:inline;overflow:visible;visibility:visible;fill:#323232;fill-opacity:1;fill-rule:nonzero;stroke:none;stroke-width:1;marker:none;enable-background:new" />
      <ellipse
         style="color:#000000;display:inline;overflow:visible;visibility:visible;fill:#323232;fill-opacity:1;fill-rule:nonzero;stroke:none;stroke-width:1;marker:none;filter:url(#filter3352-4-3-3-6-5-3-4);enable-background:new"
         id="path11507"
         transform="matrix(-2.0477236,-8.1378515,-9.8076994,1.6995828,203.85429,-1066.4901)"
         cx="-140.5"
         cy="39.875"
         rx="3.25"
         ry="2.125" />
      <ellipse
         transform="matrix(6.4446363,-5.3744269,6.9293841,7.145851,682.96347,-910.188)"
         id="path11509"
         style="color:#000000;display:inline;overflow:visible;visibility:visible;fill:#323232;fill-opacity:1;fill-rule:nonzero;stroke:none;stroke-width:1;marker:none;filter:url(#filter3352-4-3-3-6-5-3-4);enable-background:new"
         cx="-140.5"
         cy="39.875"
         rx="3.25"
         ry="2.125" />
      <ellipse
         ry="6.0192819"
         rx="6.0585055"
         style="color:#000000;display:inline;overflow:visible;visibility:visible;fill:#ffffff;fill-opacity:1;fill-rule:nonzero;stroke:none;stroke-width:5.85587;marker:none;enable-background:new"
         id="path11511"
         transform="matrix(-0.89120417,0.45360238,0.45360241,0.89120416,0,0)"
         cx="8.7410192"
         cy="133.48767" />
      <ellipse
         ry="6.0192819"
         rx="6.0585055"
         transform="matrix(-0.89120417,0.45360238,0.45360241,0.89120416,0,0)"
         id="path11513"
         style="color:#000000;display:inline;overflow:visible;visibility:visible;fill:#ffffff;fill-opacity:1;fill-rule:nonzero;stroke:none;stroke-width:5.85587;marker:none;enable-background:new"
         cx="-22.864395"
         cy="165.31888" />
      <path
         style="color:#000000;display:inline;overflow:visible;visibility:visible;opacity:0.8;fill:#aad400;fill-opacity:1;fill-rule:nonzero;stroke:none;stroke-width:1.7;marker:none;enable-background:new"
         d="m 18.352103,107.96464 c -5.615746,17.2572 6.08415,39.24207 23.341998,44.85802 15.100049,4.91361 28.907398,-5.07934 36.453923,-18.37091 -1.718889,15.18797 5.277346,31.11574 20.377399,36.02936 17.257417,5.61552 37.940617,-4.99772 43.555707,-22.256 L 80.881064,128.31058 79.553019,127.87877 18.352298,107.96404 Z"
         id="path11515" />
      <path
         style="color:#000000;display:inline;overflow:visible;visibility:visible;fill:#e9ddaf;fill-opacity:1;fill-rule:nonzero;stroke:none;stroke-width:1.7;marker:none;enable-background:new"
         d="M 156.13401,35.830694 C 125.21487,17.452432 83.629373,19.705937 54.957337,41.458132 33.612972,57.045871 19.612206,82.186037 17.752049,108.56694 c 46.556063,15.35266 93.112331,30.70509 139.668391,46.05731 -1.08322,13.9831 -1.52991,26.69236 -2.6134,40.67522 30.7996,-11.43774 49.7563,-50.61905 47.0046,-85.65591 -1.61017,-30.261877 -19.47299,-58.710051 -45.67763,-73.812866 z"
         id="path11517" />
      <path
         style="color:#000000;display:inline;overflow:visible;visibility:visible;fill:#c83737;fill-opacity:1;fill-rule:nonzero;stroke:none;stroke-width:1.69576;marker:none;enable-background:new"
         d="M 138.56387,27.728319 C 131.98976,25.549992 125.49142,24.520384 118.31821,23.860582 83.221037,34.87164 53.362404,62.432474 41.178363,100.00315 c -1.64981,5.08775 -3.740124,13.55022 -3.669105,14.69661 l 27.505751,8.98057 c 0.208269,-2.23471 2.228962,-9.94907 3.759139,-14.66702 12.485058,-38.498382 43.153512,-66.884338 79.386492,-77.356802 -3.10808,-1.433802 -6.30649,-2.838391 -9.59677,-3.928189 z"
         id="path11519" />
      <path
         style="color:#000000;display:inline;overflow:visible;visibility:visible;fill:#4a492e;fill-opacity:1;fill-rule:nonzero;stroke:none;stroke-width:1.7;stroke-opacity:0.742972;marker:none;enable-background:new"
         d="M 19.481759,95.685531 135.2172,133.346 c 0,0 36.77874,8.97239 23.80064,48.85596 l -11.91982,-3.84704 c 8.71723,-26.78907 -15.39615,-31.75188 -15.39615,-31.75188 L 17.794678,108.83173 c 0.187515,-5.25218 1.687081,-13.146199 1.687081,-13.146199 z"
         id="path11521" />
      <path
         style="color:#000000;display:inline;overflow:visible;visibility:visible;fill:#4a492e;fill-opacity:1;fill-rule:nonzero;stroke:none;stroke-width:1.7;marker:none;enable-background:new"
         d="m 159.18147,181.74745 c 0,0 -6.83818,-7.60969 -11.94038,-3.78317 -3.05097,9.37625 -3.0081,13.62325 -1.86907,19.90394 5.14033,-0.98439 6.26752,-1.35511 11.94959,-2.90864 -0.25864,-3.66196 0.19722,-8.10183 1.85986,-13.21213 z"
         id="path11523" />
      <path
         d="m 100.24516,165.53629 a 10.808417,3.6347864 0 0 1 -5.404207,3.14781 10.808417,3.6347864 0 0 1 -10.808417,0 10.808417,3.6347864 0 0 1 -5.404209,-3.14781"
         transform="matrix(0.99957465,0.02916378,-0.07634832,0.99708121,0,0)"
         id="path11525"
         style="color:#000000;display:inline;overflow:visible;visibility:visible;fill:#ffffff;fill-opacity:1;fill-rule:nonzero;stroke:#a7a9ac;stroke-width:2.6752;stroke-linecap:round;stroke-linejoin:round;stroke-miterlimit:4;stroke-dasharray:none;stroke-dashoffset:0;stroke-opacity:1;marker:none;enable-background:new" />
      <ellipse
         style="color:#000000;display:inline;overflow:visible;visibility:visible;fill:#1f1f1f;fill-opacity:1;fill-rule:nonzero;stroke:none;stroke-width:1;marker:none;filter:url(#filter3352-4-3-2-3-6-8-2);enable-background:new"
         id="path11529"
         transform="matrix(-1.0809986,-6.2964572,-7.2757126,-2.0610949,331.15486,-740.8163)"
         cx="-140.5"
         cy="39.875"
         rx="3.25"
         ry="2.125" />
      <ellipse
         transform="matrix(0.35540198,0.93471356,-0.74137558,0.67109035,0,0)"
         ry="29.916584"
         rx="34.79892"
         cy="-131.22913"
         cx="219.04317"
         id="path1253"
         style="fill:#ffffff;stroke-width:0.972841" />
      <ellipse
         style="color:#000000;display:inline;overflow:visible;visibility:visible;opacity:0.368;fill:#f4eed7;fill-opacity:1;fill-rule:nonzero;stroke:none;stroke-width:11.0238;marker:none;enable-background:new"
         id="path11531"
         transform="matrix(0.96005238,-0.27982034,0.42076098,0.90717154,0,0)"
         cx="72.752968"
         cy="94.520813"
         rx="58.047981"
         ry="43.096703" />
      <path
         style="fill:none;stroke:#aa0000;stroke-width:7.6;stroke-linecap:butt;stroke-linejoin:bevel;stroke-miterlimit:4;stroke-dasharray:none;stroke-opacity:0.742972"
         d="m 179.27141,146.9953 c 2.22389,-9.68546 4.37023,-12.76113 3.82955,-32.32547 -0.49586,-12.25943 -3.7057,-25.277745 -4.72336,-26.690524 0,0 -4.17162,13.056114 -7.61467,21.396774 -3.89061,11.0884 -10.29996,21.81099 -10.29996,21.81099 2.90734,2.85513 2.59168,0.697 -2.53115,1.7224 10.51151,1.0607 14.58452,1.01556 16.8542,1.13982 3.95969,0.0151 9.60185,0.3254 15.87342,0.18931"
         id="path1811" />
      <path
         transform="matrix(-0.51486533,-0.79920411,-0.612807,0.39897006,342.35672,305.30531)"
         style="color:#000000;display:inline;overflow:visible;visibility:visible;fill:#002200;fill-opacity:1;fill-rule:nonzero;stroke:none;stroke-width:1.60987;marker:none;filter:url(#filter3352-4-3-31-1-3-9);enable-background:new"
         d="m 153,106.25 c 0,12.28834 -10.74517,22.25 -24,22.25 -13.25483,0 -24,-9.96166 -24,-22.25 0,-12.288336 10.74517,-36.509849 24,-36.509849 13.25483,0 24,24.221513 24,36.509849 z"
         id="path11527" />
    </g>
  </g>
</svg>
