<?xml version="1.0" encoding="UTF-8" standalone="no"?>
<svg
   width="203.7151"
   height="264.93536"
   id="svg5902"
   version="1.1"
   xmlns:xlink="http://www.w3.org/1999/xlink"
   xmlns="http://www.w3.org/2000/svg"
   xmlns:svg="http://www.w3.org/2000/svg"
   xmlns:rdf="http://www.w3.org/1999/02/22-rdf-syntax-ns#"
   xmlns:cc="http://creativecommons.org/ns#"
   xmlns:dc="http://purl.org/dc/elements/1.1/">
  <defs
     id="defs5904">
    <linearGradient
       id="linearGradient6562-8-2">
      <stop
         style="stop-color:#5e5456;stop-opacity:1"
         offset="0"
         id="stop6564-7-9" />
      <stop
         style="stop-color:#221e1f;stop-opacity:1"
         offset="1"
         id="stop6566-0-1" />
    </linearGradient>
    <filter
       style="color-interpolation-filters:sRGB"
       height="1"
       width="1"
       y="0"
       x="0"
       id="filter3352-4-9-76-3-9-6-7-7-6-9">
      <feColorMatrix
         values="0"
         type="saturate"
         id="feColorMatrix3354-1-6-9-4-9-0-3-8-3-6" />
    </filter>
    <linearGradient
       id="linearGradient6443-7-7">
      <stop
         style="stop-color:#f6a20a;stop-opacity:1;"
         offset="0"
         id="stop6445-2-7" />
      <stop
         style="stop-color:#9a6506;stop-opacity:1"
         offset="1"
         id="stop6447-5-1" />
    </linearGradient>
    <filter
       style="color-interpolation-filters:sRGB"
       height="1"
       width="1"
       y="0"
       x="0"
       id="filter3352-4-3-2-3-6-8-5-1-5">
      <feColorMatrix
         values="0"
         type="saturate"
         id="feColorMatrix3354-1-66-5-3-4-6-28-0-8" />
    </filter>
    <filter
       style="color-interpolation-filters:sRGB"
       height="1"
       width="1"
       y="0"
       x="0"
       id="filter3352-4-3-3-6-5-3-9-6-4">
      <feColorMatrix
         values="0"
         type="saturate"
         id="feColorMatrix3354-1-66-9-2-4-1-6-6-0" />
    </filter>
    <linearGradient
       id="linearGradient7383">
      <stop
         style="stop-color:#000000;stop-opacity:1;"
         offset="0"
         id="stop7385" />
      <stop
         style="stop-color:#1e1e1c;stop-opacity:1"
         offset="1"
         id="stop7387" />
    </linearGradient>
    <filter
       style="color-interpolation-filters:sRGB"
       height="1"
       width="1"
       y="0"
       x="0"
       id="filter3352-4-3-31-1-3-9-3-6-4">
      <feColorMatrix
         values="0"
         type="saturate"
         id="feColorMatrix3354-1-66-51-0-0-3-9-8-4" />
    </filter>
    <radialGradient
       xlink:href="#linearGradient6562-8-2"
       id="radialGradient6927"
       gradientUnits="userSpaceOnUse"
       gradientTransform="matrix(1,0,0,1.2241635,0,-22.219105)"
       cx="115.99586"
       cy="102.65245"
       fx="115.99586"
       fy="102.65245"
       r="24" />
    <linearGradient
       xlink:href="#linearGradient6443-7-7"
       id="linearGradient6929"
       gradientUnits="userSpaceOnUse"
       gradientTransform="matrix(2.6444019,0.7085654,-0.7085654,2.6444019,4565.8831,-2342.3108)"
       x1="-1124.8492"
       y1="1380.2178"
       x2="-1121.0615"
       y2="1384.4761" />
    <linearGradient
       xlink:href="#linearGradient7383"
       id="linearGradient6941"
       gradientUnits="userSpaceOnUse"
       gradientTransform="matrix(2.7338113,0,0.4580424,2.6191768,6474.6848,-3133.6166)"
       x1="-2391.7847"
       y1="1410.5243"
       x2="-2389.1299"
       y2="1383.0571" />
  </defs>
  <g
     transform="translate(-510.75739,-337.77897)"
     id="layer1">
    <g
       id="g1430">
      <path
         id="path20243"
         d="m 153,106.25 c 0,12.28834 -10.74517,22.25 -24,22.25 -13.25483,0 -24,-9.96166 -24,-22.25 0,-12.288336 10.74517,-36.509849 24,-36.509849 13.25483,0 24,24.221513 24,36.509849 z"
         style="color:#000000;display:inline;overflow:visible;visibility:visible;fill:url(#radialGradient6927);fill-opacity:1;fill-rule:nonzero;stroke:none;stroke-width:1.60987;marker:none;filter:url(#filter3352-4-9-76-3-9-6-7-7-6-9);enable-background:new"
         transform="matrix(1.0270232,0.83749574,0.8113742,-0.10016879,377.96054,402.67946)" />
      <path
         style="fill:none;stroke:url(#linearGradient6929);stroke-width:8.20143;stroke-linecap:round;stroke-linejoin:miter;stroke-miterlimit:4;stroke-dasharray:none;stroke-opacity:1"
         d="m 619.37986,497.18895 c -9.44477,2.06239 -11.18949,14.05179 3.57063,28.75314"
         id="path20245" />
      <ellipse
         style="opacity:0.8;fill:#c8c4b7;fill-opacity:1;stroke:none;stroke-width:2.98389"
         id="path11070-2"
         transform="matrix(1,0,-0.31981215,0.94748097,0,0)"
         cx="821.13593"
         cy="589.31232"
         rx="79.963989"
         ry="28.132132" />
      <path
         transform="matrix(-1.9305809,0.3839048,0.4046427,1.8930295,874.39087,280.91851)"
         style="color:#000000;display:inline;overflow:visible;visibility:visible;fill:#550000;fill-opacity:1;fill-rule:nonzero;stroke:none;stroke-width:1.60987;marker:none;filter:url(#filter3352-4-3-2-3-6-8-5-1-5);enable-background:new"
         d="m 153,106.25 c 0,12.28834 -10.74517,22.25 -24,22.25 -13.25483,0 -19.23255,-10.92849 -19.23255,-23.21683 0,-12.28834 16.23848,-34.013527 29.49331,-34.013527 C 152.51559,71.269643 153,93.961664 153,106.25 Z"
         id="path20247" />
      <path
         id="path20251"
         d="m 615.64459,548.08344 c 3.60017,16.77089 20.58411,27.01925 37.93469,22.89034 17.35061,-4.12892 28.49751,-21.07157 24.89734,-37.84246 -3.60018,-16.7709 -20.58411,-27.01925 -37.93473,-22.89033 -17.35057,4.12891 -28.49747,21.07155 -24.8973,37.84245 z"
         style="color:#000000;display:inline;overflow:visible;visibility:visible;fill:#ffffff;fill-opacity:1;fill-rule:nonzero;stroke:none;stroke-width:1;marker:none;enable-background:new" />
      <circle
         style="color:#000000;display:inline;overflow:visible;visibility:visible;opacity:0.991736;fill:#ffffff;fill-opacity:1;fill-rule:nonzero;stroke:none;stroke-width:2.73769;marker:none;enable-background:new"
         id="path20253"
         transform="rotate(-165)"
         cx="-673.96051"
         cy="-231.3196"
         r="36.780895" />
      <path
         transform="rotate(-101.76508)"
         d="m -603.23293,580.48935 a 83.197701,83.197701 0 0 1 -13.0321,-14.5552 l 68.07057,-47.8357 z"
         id="path20255"
         style="color:#000000;display:inline;overflow:visible;visibility:visible;fill:#1b1f20;fill-opacity:1;fill-rule:nonzero;stroke:none;stroke-width:5.2293;marker:none;enable-background:new" />
      <path
         transform="matrix(1.5825094,-5.5325165,6.7254843,-1.1239941,506.25362,-353.05324)"
         style="color:#000000;display:inline;overflow:visible;visibility:visible;fill:#241f1c;fill-opacity:1;fill-rule:nonzero;stroke:none;stroke-width:1;marker:none;filter:url(#filter3352-4-3-2-3-6-8-5-1-5);enable-background:new"
         d="m -137.25,39.875 c 0,1.173605 -1.45507,2.125 -3.25,2.125 -1.79493,0 -3.25,-0.951395 -3.25,-2.125 0,-1.173605 1.45507,-2.125 3.25,-2.125 1.79493,0 3.25,0.951395 3.25,2.125 z"
         id="path20257" />
      <path
         transform="matrix(-3.1570321,0.6555451,0.70844622,3.3912583,950.41386,-15.73691)"
         style="color:#000000;display:inline;overflow:visible;visibility:visible;fill:#ffffff;fill-opacity:1;fill-rule:nonzero;stroke:none;stroke-width:1.60987;marker:none;filter:url(#filter3352-4-3-2-3-6-8-5-1-5);enable-background:new"
         d="m 153,106.25 c 1.99889,12.14657 -10.74517,22.25 -24,22.25 -13.25483,0 -26.36195,-10.16007 -24,-22.25 C 107.37908,94.072426 115.74517,84 129,84 c 13.25483,0 21.97778,9.961664 24,22.25 z"
         id="path20259" />
      <path
         transform="matrix(-5.247642,-5.4504193,-6.912989,5.7232359,163.03878,-536.12454)"
         style="color:#000000;display:inline;overflow:visible;visibility:visible;fill:#323232;fill-opacity:1;fill-rule:nonzero;stroke:none;stroke-width:1;marker:none;filter:url(#filter3352-4-3-3-6-5-3-9-6-4);enable-background:new"
         d="m -137.25,39.875 c 0,1.173605 -1.45507,2.125 -3.25,2.125 -1.79493,0 -3.25,-0.951395 -3.25,-2.125 0,-1.173605 1.45507,-2.125 3.25,-2.125 1.79493,0 3.25,0.951395 3.25,2.125 z"
         id="path20261" />
      <path
         transform="matrix(2.6353212,-7.0922424,8.6230713,2.4874652,607.94676,-628.43804)"
         style="color:#000000;display:inline;overflow:visible;visibility:visible;fill:#323232;fill-opacity:1;fill-rule:nonzero;stroke:none;stroke-width:1;marker:none;filter:url(#filter3352-4-3-3-6-5-3-9-6-4);enable-background:new"
         d="m -137.25,39.875 c 0,1.173605 -1.45507,2.125 -3.25,2.125 -1.79493,0 -3.25,-0.951395 -3.25,-2.125 0,-1.173605 1.45507,-2.125 3.25,-2.125 1.79493,0 3.25,0.951395 3.25,2.125 z"
         id="path20263" />
      <path
         style="color:#000000;display:inline;overflow:visible;visibility:visible;fill:#ffffff;fill-opacity:1;fill-rule:nonzero;stroke:none;stroke-width:1;marker:none;enable-background:new"
         d="m 582.81763,483.22491 c 2.50706,1.64276 5.87984,0.92884 7.53329,-1.59454 1.65345,-2.52338 0.96148,-5.90073 -1.54558,-7.54348 -2.50706,-1.64276 -5.87983,-0.92884 -7.53328,1.59453 -1.65345,2.52338 -0.96149,5.90073 1.54557,7.54349 z"
         id="path20265" />
      <path
         style="color:#000000;display:inline;overflow:visible;visibility:visible;fill:#ffffff;fill-opacity:1;fill-rule:nonzero;stroke:none;stroke-width:1;marker:none;enable-background:new"
         d="m 619.70709,475.11921 c 2.50706,1.64276 5.87984,0.92884 7.53329,-1.59454 1.65345,-2.52338 0.96148,-5.90073 -1.54558,-7.54348 -2.50706,-1.64276 -5.87983,-0.92884 -7.53328,1.59453 -1.65345,2.52338 -0.96149,5.90073 1.54557,7.54349 z"
         id="path20267" />
      <path
         id="path20269"
         d="m 619.682,347.05443 c -32.42606,-0.53063 -63.95626,19.86085 -76.64783,49.72521 -9.71889,21.75833 -9.41273,47.70149 0.94911,69.1774 43.30618,-8.84187 86.61256,-17.6834 129.91882,-26.52553 5.41602,11.42643 10.83191,22.8534 16.24767,34.27976 16.86078,-26.82746 16.18619,-63.17825 -1.66158,-89.36119 -14.81575,-22.95801 -41.5362,-37.21629 -68.80619,-37.29565 z"
         style="color:#000000;display:inline;overflow:visible;visibility:visible;fill:#e9ddaf;fill-opacity:1;fill-rule:nonzero;stroke:none;stroke-width:1.7;marker:none;enable-background:new" />
      <path
         id="path20271"
         d="m 602.10455,348.75678 c -6.11987,1.24647 -12.16547,3.23824 -18.07423,5.94877 -22.53011,24.45957 -33.04868,59.6995 -25.75258,94.73048 0.98832,4.74369 3.14313,12.33981 3.71253,13.20928 l 25.54508,-5.32076 c -0.83791,-1.85106 -2.71242,-8.82753 -3.62842,-13.22637 -7.47592,-35.89569 3.80603,-72.02524 27.46636,-96.57284 -3.07429,0.27071 -6.20606,0.60695 -9.26874,1.23144 z"
         style="color:#000000;display:inline;overflow:visible;visibility:visible;fill:#c83737;fill-opacity:1;fill-rule:nonzero;stroke:none;stroke-width:1.7;marker:none;enable-background:new" />
      <path
         id="path20273"
         d="m 543.9834,465.95763 c 3.33609,16.01904 19.74294,28.07851 35.76265,24.74204 14.01643,-2.91916 22.9403,-17.02139 22.89129,-30.80227 5.45829,12.65449 18.8499,22.04005 32.86634,19.12088 16.01911,-3.33634 26.6667,-20.96254 23.32963,-36.98213 l -56.80842,11.83202 -1.23266,0.25699 -56.80895,11.83188 z"
         style="color:#000000;display:inline;overflow:visible;visibility:visible;opacity:0.8;fill:#aad400;fill-opacity:1;fill-rule:nonzero;stroke:none;stroke-width:1.7;marker:none;enable-background:new" />
      <path
         id="path11132-9"
         d="m 520.19385,481.91734 c -6.10106,0 -10.2086,4.59417 -9.28433,10.33736 0.54731,-4.40991 4.18549,-7.60355 9.28433,-7.60355 h 107.40696 c 6.13159,0 11.88159,4.63956 12.86173,10.42293 l 11.75431,69.45576 c 0.0981,-0.86799 0.16081,-1.79065 0,-2.73381 l -11.75431,-69.45576 c -0.98014,-5.78338 -6.73014,-10.42293 -12.86173,-10.42293 z"
         style="color:#000000;display:inline;overflow:visible;visibility:visible;fill:#60605b;fill-opacity:1;fill-rule:nonzero;stroke:none;stroke-width:0.998504;marker:none;enable-background:new" />
      <path
         id="path20275"
         d="m 539.36655,455.84234 107.43061,-22.37478 c 0,0 32.79776,-9.45452 40.50832,27.56708 l -11.05016,2.32914 C 671.076,438.49708 649.98475,445.4154 649.98475,445.4154 l -106.04937,21.46929 c -2.20608,-4.19374 -4.56883,-11.04235 -4.56883,-11.04235 z"
         style="color:#000000;display:inline;overflow:visible;visibility:visible;fill:#4a492e;fill-opacity:1;fill-rule:nonzero;stroke:none;stroke-width:1.7;marker:none;enable-background:new" />
      <path
         id="path20277"
         d="m 687.22994,460.60571 c 0,0 -8.75953,-2.89136 -11.0377,2.38824 1.81277,8.70364 4.93765,14.85531 8.6426,19.25935 2.53648,-3.35686 5.17328,-6.57475 6.85811,-10.47651 -1.84284,-2.74922 -3.47489,-6.42772 -4.46301,-11.17108 z"
         style="color:#000000;display:inline;overflow:visible;visibility:visible;fill:#4a492e;fill-opacity:1;fill-rule:nonzero;stroke:none;stroke-width:1.7;marker:none;enable-background:new" />
      <path
         transform="matrix(-4.1689978,-3.9747162,-6.3734028,2.42208,325.49046,-298.04013)"
         style="color:#000000;display:inline;overflow:visible;visibility:visible;fill:#241f1c;fill-opacity:1;fill-rule:nonzero;stroke:none;stroke-width:1;marker:none;filter:url(#filter3352-4-3-2-3-6-8-5-1-5);enable-background:new"
         d="m -137.25,39.875 c 0,1.173605 -1.45507,2.125 -3.25,2.125 -1.79493,0 -3.25,-0.951395 -3.25,-2.125 0,-1.173605 1.45507,-2.125 3.25,-2.125 1.79493,0 3.25,0.951395 3.25,2.125 z"
         id="path20279" />
      <path
         transform="matrix(0.94257172,-0.83554128,0.0576809,-0.75972881,529.58482,710.48747)"
         style="color:#000000;display:inline;overflow:visible;visibility:visible;fill:#280b0b;fill-opacity:1;fill-rule:nonzero;stroke:none;stroke-width:1.60987;marker:none;filter:url(#filter3352-4-9-76-3-9-6-7-7-6-9);enable-background:new"
         d="m 153,106.25 c 0,12.28834 -10.74517,22.25 -24,22.25 -13.25483,0 -24,-9.96166 -24,-22.25 0,-12.288336 10.74517,-36.509849 24,-36.509849 13.25483,0 24,24.221513 24,36.509849 z"
         id="path20283" />
      <ellipse
         ry="11.33704"
         rx="24.721804"
         cy="841.77216"
         cx="28.561522"
         style="opacity:1;fill:#cccccc;fill-opacity:0.253012;stroke:none;stroke-width:1.05324"
         id="path11078-1-4"
         transform="matrix(0.62915295,-0.77728152,0.74287782,0.66942703,0,0)" />
      <path
         id="path20285"
         d="m 520.22794,484.6203 h 107.68483 c 6.14998,0 11.89218,4.52463 12.87505,10.14486 l 11.80526,67.50483 c 0.98287,5.62023 -3.17679,10.14486 -9.32678,10.14486 H 535.58148 c -6.14998,0 -11.89219,-4.52463 -12.87505,-10.14486 l -11.80527,-67.50483 c -0.98286,-5.62023 3.1768,-10.14486 9.32678,-10.14486 z"
         style="color:#000000;display:inline;overflow:visible;visibility:visible;fill:url(#linearGradient6941);fill-opacity:1;fill-rule:nonzero;stroke:none;stroke-width:0.985802;marker:none;enable-background:new" />
      <path
         id="path20287"
         d="m 529.10586,563.58448 h 140.71583 c 3.36505,0 6.07398,2.70894 6.07398,6.07398 0,3.36478 -2.70893,6.07371 -6.07398,6.07371 H 529.10586 c -3.36478,0 -6.07371,-2.70893 -6.07371,-6.07371 0,-3.36504 2.70893,-6.07398 6.07371,-6.07398 z"
         style="color:#000000;display:inline;overflow:visible;visibility:visible;fill:#000000;fill-opacity:1;fill-rule:nonzero;stroke:none;stroke-width:1;marker:none;enable-background:new" />
      <path
         d="m 584.60815,536.15295 c 0.10789,0.0939 0.31327,0.41186 0.15823,0.81383 -0.0881,0.21349 -0.19284,0.36325 -0.39138,0.53868 -0.23839,0.21233 -0.72561,0.45665 -1.48889,0.008 -0.40996,-0.24176 -0.44336,-0.32319 -0.96108,-0.25513 -0.36992,0.0494 -0.56542,-0.32983 -0.46901,-0.64572 0.0971,-0.31414 0.62153,-0.56915 1.3607,-0.16429 0.33277,0.1821 0.86383,0.56801 1.24636,0.2263 0.15843,-0.14076 0.25221,-0.23444 0.46158,-0.51715 0.01,-0.0114 0.0245,-0.0184 0.0417,-0.0184 0.0152,0 0.03,0.006 0.0418,0.0143"
         style="opacity:0.0802469;fill:#100f0d;fill-opacity:1;fill-rule:nonzero;stroke:none"
         id="path20289" />
      <ellipse
         transform="matrix(1,0,-0.19449684,0.98090314,0,0)"
         id="path11078-1"
         style="opacity:1;fill:#c8c4b7;fill-opacity:1;stroke:none;stroke-width:1.13242"
         cx="790.46832"
         cy="597.52051"
         rx="23.666101"
         ry="13.690438" />
      <path
         transform="matrix(-0.57047594,-0.63976193,0.49418839,-0.43641702,698.43857,700.32512)"
         style="color:#000000;display:inline;overflow:visible;visibility:visible;fill:#280b0b;fill-opacity:1;fill-rule:nonzero;stroke:none;stroke-width:1.60987;marker:none;filter:url(#filter3352-4-3-31-1-3-9-3-6-4);enable-background:new"
         d="m 153,106.25 c 0,12.28834 -10.74517,22.25 -24,22.25 -13.25483,0 -24,-9.96166 -24,-22.25 0,-12.288336 10.74517,-36.509849 24,-36.509849 13.25483,0 24,24.221513 24,36.509849 z"
         id="path20293" />
      <g
         id="g695"
         transform="matrix(0.4,0,0.0705308,0.4,506.45071,501.28121)">
        <g
           id="g674">
          <path
             id="path672"
             d="m 86.4,35.3 c 10.8,0 20.1,3.8 27.7,11.3 7.7,7.5 11.5,16.7 11.5,27.5 0,10.8 -3.9,20.2 -11.6,28.1 C 106.3,110.1 97,114 86.3,114 75.8,114 66.7,110.1 59,102.2 51.3,94.4 47.5,85.1 47.5,74.4 c 0,-10.8 3.8,-20 11.3,-27.7 7.6,-7.6 16.8,-11.4 27.6,-11.4 z m -25,39.4 c 0,7 2.5,13.1 7.5,18.3 5,5.2 10.9,7.9 17.6,7.9 6.9,0 12.8,-2.6 17.8,-7.7 5,-5.1 7.5,-11.4 7.5,-18.6 0,-7.2 -2.5,-13.4 -7.5,-18.7 -5,-5.3 -10.9,-8 -17.8,-8 -6.5,0 -12.4,2.6 -17.5,8 -5,5.3 -7.6,11.5 -7.6,18.8 z"
             style="fill:#f22b29" />
        </g>
        <polygon
           id="polygon676"
           points="149.3,63.6 149.2,0.4 135.8,0.4 135.8,112.8 149.3,112.8 149.3,81.5 "
           style="fill:#ffffff" />
        <path
           id="path678"
           d="m 199.7,107.8 c 0,-5.9 -1.5,-11.6 -4.4,-17 -2.9,-5.4 -5.6,-9.2 -8.1,-11.3 -2.5,-2.1 -4.4,-3.5 -5.8,-4.1 L 177,72.9 c 12.5,-6.4 19.6,-16 21.5,-28.7 l 1.2,-6.7 h -14.1 l -0.9,5.1 c -1.3,6.9 -5,12.7 -11.2,17.4 -4.9,3.7 -10.2,6 -15.9,6.8 v 12.7 c 6.8,0.8 12.5,3.1 17.2,6.9 6,4.8 9.5,11.6 10.4,20.3 l 0.6,6.1 H 200 Z"
           style="fill:#ffffff" />
        <path
           id="path680"
           d="m 272.3,0.4 v 51.3 20.8 c 0,8 -2.5,14.8 -7.6,20.3 -5.1,5.5 -11.2,8.3 -18.5,8.3 -7,0 -13.1,-2.5 -18,-7.6 -5,-5.1 -7.5,-11 -7.5,-17.8 0,-7.5 2.8,-13.7 8.3,-18.7 5.5,-5 12.2,-7.5 20.1,-7.5 0.6,0 1.4,0 2.4,0.1 1,0.1 2.4,0.3 4.3,0.7 2.4,0.7 5.1,1.7 8.1,3 v -14 c -3.6,-1.3 -6.6,-2.2 -8.9,-2.5 -2,-0.4 -4.4,-0.6 -7.3,-0.6 -11.8,0 -21.5,3.6 -29,10.8 -7.5,7.2 -11.3,16.6 -11.3,28.1 0,11.5 3.7,20.9 11.1,28.1 7.4,7.2 16.9,10.8 28.7,10.8 10.2,0 18.6,-2.8 25.1,-8.3 v 8.3 h 13.6 V 72.7 51.7 0.4 Z"
           style="fill:#ffffff" />
      </g>
      <path
         style="color:#000000;display:inline;overflow:visible;visibility:visible;opacity:0.368;fill:#f4eed7;fill-opacity:1;fill-rule:nonzero;stroke:none;stroke-width:3.89626;marker:none;enable-background:new"
         d="m 628.74628,354.0701 c 17.13961,12.4093 15.1109,39.33606 -4.53122,60.14261 -19.64212,20.80656 -49.45961,27.61386 -66.59923,15.20459 -17.13963,-12.40931 -15.11092,-39.33607 4.5312,-60.14262 19.64212,-20.80655 49.45961,-27.61389 66.59925,-15.20458 z"
         id="path20281" />
      <ellipse
         transform="matrix(0.78955056,0.61368552,-0.32569154,0.94547608,0,0)"
         ry="26.070654"
         rx="31.18626"
         cy="-97.777977"
         cx="809.20288"
         id="path1253-1-0"
         style="fill:#ffffff;stroke-width:0.859727" />
      <path
         style="fill:none;stroke:#aa0000;stroke-width:6.76981;stroke-linecap:butt;stroke-linejoin:bevel;stroke-miterlimit:4;stroke-dasharray:none;stroke-opacity:0.742972"
         d="m 687.26648,425.34044 c -2.11923,-8.39052 -1.61144,-11.60241 -10.01872,-26.63782 -5.39697,-9.3618 -13.32806,-18.2831 -14.73754,-18.99684 0,0 1.89437,11.75672 2.46659,19.56306 1.32377,10.11701 0.43352,20.90652 0.43352,20.90652 3.54596,1.119 2.50538,-1.3542 -1.11219,1.86308 9.05023,-3.1695 12.40262,-4.47455 14.31413,-5.24054 3.25273,-1.49346 6.67517,-2.54061 12.57989,-5.74896"
         id="path1811-9-3" />
    </g>
  </g>
</svg>
